<?xml version="1.0" encoding="utf-8"?>
<!-- Generator: Adobe Illustrator 25.0.1, SVG Export Plug-In . SVG Version: 6.00 Build 0)  -->
<svg version="1.1" id="Layer_1" xmlns="http://www.w3.org/2000/svg" xmlns:xlink="http://www.w3.org/1999/xlink" x="0px" y="0px"
	 viewBox="0 0 73.2 98.7" style="enable-background:new 0 0 73.2 98.7;" xml:space="preserve">
<style type="text/css">
	.st0{fill:#FFFFFF;}
	.st1{fill:#3F4257;}
	.st2{fill-rule:evenodd;clip-rule:evenodd;fill:#3F4257;}
</style>
<g>
	<path class="st0" d="M33.9,98c-5.8,0-11.4-1.2-16.4-3.6c-4.9-2.3-9.1-5.7-12-9.8c-5-7.1-6.1-16-3-25v-0.1
		c7.8-22.5,13-25.7,18.7-27.4l0.5-0.1v0.2l0.8-0.1c0.5,0,0.9-0.1,1.4-0.1c0.6,0,1.2,0,1.8,0.1l0.8,0.1l0.4,0.1
		c1.9,0.3,3.8,0.8,5.7,1.5l0,0l0,0c0.4,0.1,0.9,0.2,1.3,0.2l0,0c5.2,0,12.8-10.1,18.8-28.9c-0.3,1.7-1.1,6.5-1.4,8.1
		C49.9,19.8,48.8,26,47.9,31l-0.1,0.5l0.5,0.2c2.8,1.2,5,3.8,6.5,7.6l0.1,0.3l0.3,0.1c5.2,1.9,9.3,4.6,12.1,8
		c2.5,3,4.2,6.5,4.8,10.5c0.9,5.3,0,11.6-2.5,17.6c-2.2,5.2-5.3,9.8-8.5,12.3C53.1,94.6,43.7,98,33.9,98L33.9,98z M21.3,11.7
		l0.5,2.5L21.6,31L21.3,11.7z M26.3,30.4c-0.2-8.7,5.1-17.5,12.8-21.7c-0.7,0.9-1.4,1.8-2,2.7C30.9,15,27.4,21.3,26.3,30.4z"/>
	<g>
		<path class="st1" d="M55.4,39.1c-1.7-4.1-4-6.7-6.9-8c1.5-8.3,3.6-20,5.7-31.1c-0.4,1.7-1.1,3.4-1.7,5c-1.7,9.3-4.2,20.4-5.5,27.4
			c3.2,1.5,5.6,4.2,6.9,7.6c27.3,9.9,16.5,38.3,6.9,46.1c-28,22.7-67.7,4-57.3-26.9C10.4,39,16.5,35,22.3,33.3l0,0
			c2.6-0.5,6.9,0.4,9.2,0.9c1.4,0.4,2.2,0.5,2.5,0.5C42,35.2,49.6,16.2,52.6,5c-2.1,5.3-11.9,30.7-20,28.3c-1.9-0.7-3.8-1.2-5.8-1.6
			c0.8-8.8,4-15.8,10.7-19.6c1.2-1.8,2.7-3.6,4.2-5.1c-9.9,3.5-16.8,14.4-16.1,24.6c-1.1-0.1-2.2-0.1-3.3,0l0.2-17.2l-2.1-9.6
			l0.5,26.8c-6.3,1.9-11.6,5.9-19.1,27.8l0,0c-7.7,22.4,10.5,39.3,32.1,39.3c9.2,0,19-3.1,27.7-10C71.7,80.6,84.2,49.7,55.4,39.1z"
			/>
		<path class="st1" d="M41.8,6.8L41.8,6.8L41.8,6.8z"/>
	</g>
	<g id="Group_174_1_" transform="translate(-5071.999 -1624)">
		<g id="Group_1_1_" transform="translate(5072 1624)">
			<path id="Path_839_1_" class="st2" d="M32.2,41.9c1.8-4.6,5.7-7.7,10.2-7.7c6.2,0,11.3,6.1,11.3,13.6c0,7.5-5.1,13.6-11.3,13.6
				c-4.5,0-8.4-3.2-10.2-7.8c0.1-0.2,0.2-0.3,0.3-0.5c1.7,4.2,5.2,7.2,9.4,7.2c5.7,0,10.4-5.6,10.4-12.4s-4.6-12.4-10.4-12.4
				c-4.1,0-7.7,2.9-9.4,7.1C32.4,42.2,32.3,42.1,32.2,41.9z M24.2,36.4c2.9,0,5.5,1.9,7.1,4.8c-1.2-2.3-3.6-3.7-6.2-3.8
				c-4.4,0-7.9,4.6-7.9,10.3c0,5.7,4.4,10.3,7.9,10.3s4.7-1.9,6.1-4.2c-1.6,2.8-3.2,5.1-7,5.1s-8.7-5-8.7-11.2
				C15.5,41.5,19.4,36.4,24.2,36.4L24.2,36.4z"/>
			<path id="Path_840_1_" class="st2" d="M26.9,45.5c0.9,0,1.6-0.7,1.6-1.5c0-0.9-0.7-1.6-1.5-1.6c-0.9,0-1.6,0.7-1.6,1.5l0,0
				C25.4,44.8,26.1,45.4,26.9,45.5z"/>
			<path id="Path_842_1_" class="st2" d="M46,46.4c0.9,0,1.6-0.6,1.6-1.5s-0.6-1.6-1.5-1.6s-1.6,0.6-1.6,1.5c0,0,0,0,0,0.1
				C44.5,45.7,45.2,46.4,46,46.4z"/>
			<path id="Path_843_1_" class="st2" d="M25.2,62.8l0.6,0.1l-2.3,23.4l-0.6-0.1L25.2,62.8z"/>
			<path id="Path_844_1_" class="st2" d="M37.7,65.3h0.6l1.5,23.5h-0.6L37.7,65.3z"/>
			<path id="Path_845_1_" class="st2" d="M50.7,64.2l0.5-0.1l3.1,19.7L53.7,84L50.7,64.2z"/>
			<g>
				<polygon class="st1" points="7.2,57.5 7.2,57.5 7.2,57.5 				"/>
				<path class="st1" d="M7.2,57.5c-4.3,39.6,64.1,47.3,56.7-0.1l0,0l0,0l0,0c-0.3,0.2-0.6,0.4-0.9,0.6c-0.3,0.2-0.6,0.5-1,0.7
					c-0.9,0.6-2.2,1.2-3.8,1.9C40.5,66.9,16.3,62.2,7.2,57.5 M8.4,58.9c7.6,7,37.3,10.1,53,2.1c0,0,0.3-0.1,0.5-0.3
					C66.4,101.9,4.9,94.4,8.4,58.9z"/>
			</g>
		</g>
	</g>
</g>
</svg>
